<?xml version="1.0" encoding="UTF-8"?>
<svg version="1.1" xmlns="http://www.w3.org/2000/svg" width="512" height="512">
<path d="M0 0 C4.42668834 2.59610294 7.20182782 5.5088113 9.640625 10.09375 C9.73988281 10.76664063 9.83914062 11.43953125 9.94140625 12.1328125 C10.47831393 14.3020738 10.47831393 14.3020738 12.75 15.33203125 C13.62140625 15.68652344 14.4928125 16.04101562 15.390625 16.40625 C20.6386965 18.8388325 22.81082464 21.07313645 25.640625 26.09375 C27.21044055 31.34345783 27.33868911 36.10379262 25.078125 41.15625 C22.80166498 45.32704996 19.70352706 48.60510465 15.640625 51.09375 C14.650625 51.09375 13.660625 51.09375 12.640625 51.09375 C12.640625 57.69375 12.640625 64.29375 12.640625 71.09375 C13.960625 71.75375 15.280625 72.41375 16.640625 73.09375 C18.34375 74.96875 18.34375 74.96875 19.890625 77.09375 C20.67179687 78.145625 20.67179687 78.145625 21.46875 79.21875 C22.640625 81.09375 22.640625 81.09375 22.640625 83.09375 C23.630625 83.3721875 23.630625 83.3721875 24.640625 83.65625 C28.90967768 85.70183774 32.38226206 88.66559643 35.640625 92.09375 C35.640625 92.75375 35.640625 93.41375 35.640625 94.09375 C36.22785339 94.08708817 36.81508179 94.08042633 37.42010498 94.07356262 C43.58551504 94.00669291 49.75082047 93.96173732 55.91650391 93.92895508 C58.2111429 93.91395849 60.50575367 93.89355449 62.80029297 93.86743164 C66.11693325 93.8306442 69.43319142 93.8139318 72.75 93.80078125 C73.75987976 93.78529739 74.76975952 93.76981354 75.8102417 93.75386047 C92.11459597 93.75009105 106.85259884 99.80032634 118.640625 111.09375 C120.47238337 113.32572449 122.17476526 115.61719725 123.87109375 117.953125 C125.74101302 120.21519069 127.62970875 121.70849958 130.015625 123.40625 C141.32866361 131.76554303 147.79860752 144.36746422 150.078125 157.96875 C150.94585033 163.82422793 150.94585033 163.82422793 154.578125 168.15625 C155.58875 168.795625 156.599375 169.435 157.640625 170.09375 C161.640625 175.46217105 161.640625 175.46217105 161.640625 178.09375 C162.32125 178.3 163.001875 178.50625 163.703125 178.71875 C172.62131218 182.8932206 177.3331901 190.53492956 181.015625 199.40625 C182.87068979 210.35113225 182.04868647 220.08886023 176.0625 229.6015625 C170.34971273 237.39874513 164.07702522 241.84437553 154.640625 244.09375 C153.650625 244.09375 152.660625 244.09375 151.640625 244.09375 C151.69283203 245.00640625 151.69283203 245.00640625 151.74609375 245.9375 C152.27780604 263.15485041 147.58718423 279.16688652 136.515625 292.53125 C126.56543502 302.70446148 112.53957336 310.6772392 98.12842655 311.22797108 C96.75109377 311.23732788 95.37371767 311.24128 93.99635315 311.24092102 C93.2342511 311.24459771 92.47214906 311.2482744 91.68695301 311.2520625 C89.13707962 311.26306204 86.58724704 311.26693689 84.03735352 311.27075195 C82.20713676 311.27701961 80.37692126 311.28366668 78.54670715 311.29066467 C72.53765748 311.31167825 66.52860765 311.32206718 60.51953125 311.33203125 C58.44674097 311.33608035 56.37395082 311.34019732 54.30116081 311.34438133 C44.55788785 311.3634301 34.81462242 311.37765963 25.07133442 311.3859933 C13.84736479 311.39575325 2.62359303 311.42204167 -8.60030693 311.46249419 C-17.28930365 311.49272873 -25.9782439 311.50746927 -34.66729218 311.51077431 C-39.84999985 311.51311716 -45.03249608 311.52197708 -50.21514702 311.54723549 C-55.09815465 311.57064872 -59.98081361 311.57469655 -64.86386299 311.56447411 C-66.64632457 311.56398178 -68.42880408 311.57021167 -70.21121216 311.58403015 C-88.10166873 311.71485596 -103.92243735 308.56014709 -117.22021484 295.5625 C-119.64374562 293.11269992 -122.00084629 290.60631905 -124.359375 288.09375 C-126.86519331 285.54896096 -129.39720083 283.05843473 -132.0078125 280.62109375 C-143.04888261 270.13365896 -151.05448794 257.44055008 -151.609375 241.71875 C-152.5980888 236.93996665 -154.89794069 235.1170974 -158.4375 231.91015625 C-160.359375 230.09375 -160.359375 230.09375 -161.984375 227.34375 C-163.86176157 224.27166289 -166.35517973 223.05803152 -169.359375 221.09375 C-176.97242452 214.66714975 -181.6952996 206.64323881 -182.58203125 196.5625 C-182.96304583 184.767614 -179.44407865 175.77833048 -171.359375 167.09375 C-165.40163921 162.49463501 -158.98651825 159.09375 -151.359375 159.09375 C-151.40578125 158.08957031 -151.4521875 157.08539063 -151.5 156.05078125 C-151.80076454 146.67752925 -150.88764354 138.91442136 -147.359375 130.09375 C-147.03195313 129.23394531 -146.70453125 128.37414062 -146.3671875 127.48828125 C-140.04860293 112.98320937 -126.7555517 102.99007507 -112.51171875 97.13671875 C-103.98789651 94.31656938 -95.96866164 93.76588168 -87.01171875 93.6796875 C-85.1330587 93.65063828 -85.1330587 93.65063828 -83.21644592 93.6210022 C-79.91712428 93.57163463 -76.61783426 93.53024812 -73.31835938 93.49285889 C-69.93935499 93.45255977 -66.56051255 93.4015869 -63.18164062 93.3515625 C-56.57432362 93.25587957 -49.96693495 93.17073203 -43.359375 93.09375 C-43.06138252 92.0623288 -43.06138252 92.0623288 -42.75737 91.0100708 C-42.36059807 89.65785431 -42.36059807 89.65785431 -41.95581055 88.27832031 C-41.6952739 87.38445618 -41.43473724 86.49059204 -41.16630554 85.56964111 C-38.56694847 77.59407847 -32.52626219 71.23796148 -25.359375 67.09375 C-20.90119341 64.92245045 -17.40998011 64.09375 -12.359375 64.09375 C-12.359375 54.52375 -12.359375 44.95375 -12.359375 35.09375 C-14.009375 34.76375 -15.659375 34.43375 -17.359375 34.09375 C-19.30859375 32.82421875 -19.30859375 32.82421875 -21.046875 31.28125 C-21.62824219 30.77980469 -22.20960938 30.27835938 -22.80859375 29.76171875 C-27.10795153 25.13747248 -26.78064746 20.36093947 -26.671875 14.296875 C-26.22554316 9.72197363 -25.25073169 7.66990169 -22.359375 4.09375 C-15.81854319 -0.97873181 -8.00430392 -3.07450084 0 0 Z M-3.359375 49.09375 C-3.359375 54.04375 -3.359375 58.99375 -3.359375 64.09375 C-1.049375 64.42375 1.260625 64.75375 3.640625 65.09375 C3.640625 60.47375 3.640625 55.85375 3.640625 51.09375 C1.330625 50.43375 -0.979375 49.77375 -3.359375 49.09375 Z " fill="#FED6E4" transform="translate(195.359375,152.90625)"/>
<path d="M0 0 C0.72579764 -0.0060911 1.45159527 -0.01218221 2.19938678 -0.01845789 C4.61434393 -0.03501326 7.02876949 -0.03032293 9.44377136 -0.0255127 C11.18225651 -0.03285745 12.92073679 -0.04144486 14.65921021 -0.05117798 C19.37010403 -0.07336167 24.08082276 -0.07632618 28.79176164 -0.07443047 C32.73043128 -0.0743106 36.66906405 -0.08288136 40.60772341 -0.09120798 C49.90400931 -0.11043131 59.20020541 -0.11333001 68.49650574 -0.10656738 C78.07201099 -0.09992951 87.64713076 -0.12278322 97.22255784 -0.15988111 C105.4563553 -0.19061827 113.69002901 -0.20193372 121.92388266 -0.1980443 C126.8359477 -0.1959807 131.7477128 -0.20139571 136.65972328 -0.22593689 C141.28184304 -0.24826747 145.90333809 -0.24627395 150.5254612 -0.22600937 C152.21606943 -0.22261029 153.90672024 -0.22764067 155.59727097 -0.24199295 C165.70708971 -0.32185961 174.59032483 -0.04017732 182.4211092 7.20035553 C185.38382405 10.31903933 187.1998085 12.97021823 187.46794128 17.39440918 C188.31356628 17.60065918 189.15919128 17.80690918 190.03044128 18.01940918 C196.77069093 20.71550904 200.72271677 24.92866218 203.74137878 31.46472168 C205.06479664 34.97960566 205.59394807 38.1225813 205.60838318 41.8769989 C205.61409332 42.7698056 205.61980347 43.6626123 205.62568665 44.58247375 C205.62736343 46.04048653 205.62736343 46.04048653 205.6290741 47.5279541 C205.634039 48.55771362 205.63900391 49.58747314 205.64411926 50.6484375 C205.65873082 54.05725777 205.66554187 57.46603148 205.67106628 60.87487793 C205.67681934 63.24656678 205.68257705 65.61825563 205.68833923 67.98994446 C205.6988469 72.96566993 205.70469085 77.94137925 205.70817566 82.91711426 C205.71365447 89.28126096 205.73767061 95.64519308 205.76614761 102.00927258 C205.78480789 106.91045242 205.78998145 111.81158098 205.79151154 116.71279335 C205.79453181 119.0582528 205.80253916 121.40371148 205.81569672 123.74913597 C205.83282483 127.03755184 205.83086003 130.32544875 205.8243866 133.6138916 C205.83360138 134.57577896 205.84281616 135.53766632 205.85231018 136.52870178 C205.79593475 145.70912998 203.8040778 152.92613964 197.42497253 159.66784668 C189.51418064 166.64702835 180.32135049 166.54829801 170.3009491 166.44104004 C168.23415819 166.42827267 166.16736525 166.41583145 164.10057068 166.40367126 C162.46860622 166.39179685 162.46860622 166.39179685 160.80367279 166.37968254 C153.79694384 166.33736466 146.79003913 166.34941047 139.78320694 166.34957027 C133.63733024 166.34657162 127.49246765 166.32581818 121.34684753 166.2677002 C115.38604125 166.21239336 109.42693365 166.20610521 103.46595001 166.23239326 C101.20303619 166.23362379 98.94003798 166.21725379 96.67739105 166.18247795 C82.08365075 165.59726037 82.08365075 165.59726037 69.74821472 172.2442627 C68.28455255 173.92962408 66.8531156 175.64396864 65.46794128 177.39440918 C64.14080404 178.61204227 62.79133928 179.80660037 61.40544128 180.95690918 C58.45086132 183.5211483 55.54833444 186.13578475 52.65544128 188.76940918 C48.21413623 192.78642931 43.61008907 196.56019596 38.94450378 200.31237793 C36.8383432 202.08301451 34.96384913 203.88438255 33.09294128 205.89440918 C30.39602032 208.46290533 29.16922887 209.39440918 25.46794128 209.39440918 C24.47794128 208.73440918 23.48794128 208.07440918 22.46794128 207.39440918 C22.03556824 205.14782715 22.03556824 205.14782715 21.95622253 202.38659668 C21.92077332 201.40046387 21.8853241 200.41433105 21.84880066 199.39831543 C21.81496277 197.84950684 21.81496277 197.84950684 21.78044128 196.26940918 C21.74628113 195.22913574 21.71212097 194.1888623 21.67692566 193.11706543 C21.59427071 190.54295411 21.52517974 187.96919089 21.46794128 185.39440918 C20.99453308 185.88739502 20.52112488 186.38038086 20.03337097 186.88830566 C19.40849792 187.52840576 18.78362488 188.16850586 18.13981628 188.82800293 C17.52203308 189.46536377 16.90424988 190.10272461 16.26774597 190.75939941 C14.03238395 192.79008572 12.50038255 193.47864366 9.46794128 193.39440918 C8.47794128 192.73440918 7.48794128 192.07440918 6.46794128 191.39440918 C6.12736511 188.68884277 6.12736511 188.68884277 6.17497253 185.29284668 C6.18947449 183.47526855 6.18947449 183.47526855 6.20426941 181.62097168 C6.22940613 180.34995605 6.25454285 179.07894043 6.28044128 177.76940918 C6.30074402 175.85128418 6.30074402 175.85128418 6.32145691 173.89440918 C6.35690933 170.72732636 6.40632688 167.56107377 6.46794128 164.39440918 C5.04517883 163.94629883 5.04517883 163.94629883 3.59367371 163.48913574 C-0.95260429 161.89689091 -3.53597927 159.08545551 -6.53205872 155.39440918 C-7.00643372 154.36315918 -7.48080872 153.33190918 -7.96955872 152.26940918 C-9.62896616 149.21609947 -10.38495242 148.68122924 -13.28205872 147.01940918 C-18.68545561 143.91893605 -23.09534159 139.70126739 -25.60324097 133.92889404 C-26.86149763 129.14077587 -26.83517967 124.61372635 -26.8384552 119.68249512 C-26.84677872 118.61503555 -26.85510223 117.54757599 -26.86367798 116.44776917 C-26.88773979 112.92473687 -26.89654587 109.4018899 -26.90315247 105.87878418 C-26.91212218 103.4226679 -26.92124409 100.96655218 -26.93051147 98.51043701 C-26.94699401 93.36253534 -26.95470018 88.21469864 -26.95759583 83.06677246 C-26.96297654 76.48513848 -27.00064807 69.90411911 -27.04633999 63.32265854 C-27.07615044 58.24900101 -27.08332028 53.17549072 -27.08432198 48.10175323 C-27.08851684 45.67616208 -27.10092144 43.25057019 -27.12183952 40.82506561 C-27.14883293 37.42422396 -27.14390339 34.02479709 -27.13142395 30.62390137 C-27.14625824 29.63134842 -27.16109253 28.63879547 -27.17637634 27.61616516 C-27.09615156 19.90031187 -25.07499429 13.26743387 -19.77658749 7.47538376 C-13.95750107 2.01939251 -7.89023062 0.02275022 0 0 Z " fill="#F9749D" transform="translate(293.5320587158203,47.6055908203125)"/>
<path d="M0 0 C4.42668834 2.59610294 7.20182782 5.5088113 9.640625 10.09375 C9.73988281 10.76664063 9.83914062 11.43953125 9.94140625 12.1328125 C10.47831393 14.3020738 10.47831393 14.3020738 12.75 15.33203125 C13.62140625 15.68652344 14.4928125 16.04101562 15.390625 16.40625 C20.6386965 18.8388325 22.81082464 21.07313645 25.640625 26.09375 C27.21044055 31.34345783 27.33868911 36.10379262 25.078125 41.15625 C22.80166498 45.32704996 19.70352706 48.60510465 15.640625 51.09375 C14.650625 51.09375 13.660625 51.09375 12.640625 51.09375 C12.640625 57.69375 12.640625 64.29375 12.640625 71.09375 C13.960625 71.75375 15.280625 72.41375 16.640625 73.09375 C18.34375 74.96875 18.34375 74.96875 19.890625 77.09375 C20.67179687 78.145625 20.67179687 78.145625 21.46875 79.21875 C22.640625 81.09375 22.640625 81.09375 22.640625 83.09375 C23.630625 83.3721875 23.630625 83.3721875 24.640625 83.65625 C28.90967768 85.70183774 32.38226206 88.66559643 35.640625 92.09375 C35.640625 92.75375 35.640625 93.41375 35.640625 94.09375 C36.22785339 94.08708817 36.81508179 94.08042633 37.42010498 94.07356262 C43.58551504 94.00669291 49.75082047 93.96173732 55.91650391 93.92895508 C58.2111429 93.91395849 60.50575367 93.89355449 62.80029297 93.86743164 C66.11693325 93.8306442 69.43319142 93.8139318 72.75 93.80078125 C73.75987976 93.78529739 74.76975952 93.76981354 75.8102417 93.75386047 C92.11459597 93.75009105 106.85259884 99.80032634 118.640625 111.09375 C120.47238337 113.32572449 122.17476526 115.61719725 123.87109375 117.953125 C125.74101302 120.21519069 127.62970875 121.70849958 130.015625 123.40625 C141.32866361 131.76554303 147.79860752 144.36746422 150.078125 157.96875 C150.94585033 163.82422793 150.94585033 163.82422793 154.578125 168.15625 C155.58875 168.795625 156.599375 169.435 157.640625 170.09375 C161.640625 175.46217105 161.640625 175.46217105 161.640625 178.09375 C162.32125 178.3 163.001875 178.50625 163.703125 178.71875 C172.62131218 182.8932206 177.3331901 190.53492956 181.015625 199.40625 C182.87068979 210.35113225 182.04868647 220.08886023 176.0625 229.6015625 C170.34971273 237.39874513 164.07702522 241.84437553 154.640625 244.09375 C153.650625 244.09375 152.660625 244.09375 151.640625 244.09375 C151.69283203 245.00640625 151.69283203 245.00640625 151.74609375 245.9375 C152.27780604 263.15485041 147.58718423 279.16688652 136.515625 292.53125 C126.56543502 302.70446148 112.53957336 310.6772392 98.12842655 311.22797108 C96.75109377 311.23732788 95.37371767 311.24128 93.99635315 311.24092102 C93.2342511 311.24459771 92.47214906 311.2482744 91.68695301 311.2520625 C89.13707962 311.26306204 86.58724704 311.26693689 84.03735352 311.27075195 C82.20713676 311.27701961 80.37692126 311.28366668 78.54670715 311.29066467 C72.53765748 311.31167825 66.52860765 311.32206718 60.51953125 311.33203125 C58.44674097 311.33608035 56.37395082 311.34019732 54.30116081 311.34438133 C44.55788785 311.3634301 34.81462242 311.37765963 25.07133442 311.3859933 C13.84736479 311.39575325 2.62359303 311.42204167 -8.60030693 311.46249419 C-17.28930365 311.49272873 -25.9782439 311.50746927 -34.66729218 311.51077431 C-39.84999985 311.51311716 -45.03249608 311.52197708 -50.21514702 311.54723549 C-55.09815465 311.57064872 -59.98081361 311.57469655 -64.86386299 311.56447411 C-66.64632457 311.56398178 -68.42880408 311.57021167 -70.21121216 311.58403015 C-88.10166873 311.71485596 -103.92243735 308.56014709 -117.22021484 295.5625 C-119.64374562 293.11269992 -122.00084629 290.60631905 -124.359375 288.09375 C-126.86519331 285.54896096 -129.39720083 283.05843473 -132.0078125 280.62109375 C-143.04888261 270.13365896 -151.05448794 257.44055008 -151.609375 241.71875 C-152.5980888 236.93996665 -154.89794069 235.1170974 -158.4375 231.91015625 C-160.359375 230.09375 -160.359375 230.09375 -161.984375 227.34375 C-163.86176157 224.27166289 -166.35517973 223.05803152 -169.359375 221.09375 C-176.97242452 214.66714975 -181.6952996 206.64323881 -182.58203125 196.5625 C-182.96304583 184.767614 -179.44407865 175.77833048 -171.359375 167.09375 C-165.40163921 162.49463501 -158.98651825 159.09375 -151.359375 159.09375 C-151.40578125 158.08957031 -151.4521875 157.08539063 -151.5 156.05078125 C-151.80076454 146.67752925 -150.88764354 138.91442136 -147.359375 130.09375 C-147.03195313 129.23394531 -146.70453125 128.37414062 -146.3671875 127.48828125 C-140.04860293 112.98320937 -126.7555517 102.99007507 -112.51171875 97.13671875 C-103.98789651 94.31656938 -95.96866164 93.76588168 -87.01171875 93.6796875 C-85.1330587 93.65063828 -85.1330587 93.65063828 -83.21644592 93.6210022 C-79.91712428 93.57163463 -76.61783426 93.53024812 -73.31835938 93.49285889 C-69.93935499 93.45255977 -66.56051255 93.4015869 -63.18164062 93.3515625 C-56.57432362 93.25587957 -49.96693495 93.17073203 -43.359375 93.09375 C-43.06138252 92.0623288 -43.06138252 92.0623288 -42.75737 91.0100708 C-42.36059807 89.65785431 -42.36059807 89.65785431 -41.95581055 88.27832031 C-41.6952739 87.38445618 -41.43473724 86.49059204 -41.16630554 85.56964111 C-38.56694847 77.59407847 -32.52626219 71.23796148 -25.359375 67.09375 C-20.90119341 64.92245045 -17.40998011 64.09375 -12.359375 64.09375 C-12.359375 54.52375 -12.359375 44.95375 -12.359375 35.09375 C-14.009375 34.76375 -15.659375 34.43375 -17.359375 34.09375 C-19.30859375 32.82421875 -19.30859375 32.82421875 -21.046875 31.28125 C-21.62824219 30.77980469 -22.20960938 30.27835938 -22.80859375 29.76171875 C-27.10795153 25.13747248 -26.78064746 20.36093947 -26.671875 14.296875 C-26.22554316 9.72197363 -25.25073169 7.66990169 -22.359375 4.09375 C-15.81854319 -0.97873181 -8.00430392 -3.07450084 0 0 Z M-3.359375 49.09375 C-3.359375 54.04375 -3.359375 58.99375 -3.359375 64.09375 C-1.049375 64.42375 1.260625 64.75375 3.640625 65.09375 C3.640625 60.47375 3.640625 55.85375 3.640625 51.09375 C1.330625 50.43375 -0.979375 49.77375 -3.359375 49.09375 Z M-132.359375 121.09375 C-140.36615158 131.81384172 -143.50312601 143.12108195 -143.52050781 156.30517578 C-143.52547272 157.21336563 -143.53043762 158.12155548 -143.53555298 159.05726624 C-143.55011388 162.05120615 -143.5569674 165.04509304 -143.5625 168.0390625 C-143.56825759 170.131663 -143.57401524 172.22426351 -143.57977295 174.31686401 C-143.59026648 178.70310714 -143.59611955 183.08933203 -143.59960938 187.47558594 C-143.60508265 193.07038463 -143.62909283 198.66493856 -143.65758133 204.25966072 C-143.67629416 208.58363527 -143.68141795 212.90755196 -143.68294525 217.23156357 C-143.68595413 219.29264536 -143.69392233 221.35372656 -143.70713043 223.41476822 C-143.81579671 241.67888443 -142.33820922 258.11711505 -128.984375 272.03125 C-117.92365921 282.23251828 -106.0068913 287.19136792 -90.9052887 287.24092102 C-89.81091497 287.24643605 -89.81091497 287.24643605 -88.69443268 287.2520625 C-86.26055526 287.2630361 -83.82672064 287.26693242 -81.39282227 287.27075195 C-79.6428972 287.27702156 -77.89297346 287.2836688 -76.14305115 287.29066467 C-70.40397052 287.31165469 -64.66488979 287.32206485 -58.92578125 287.33203125 C-56.94433008 287.33608121 -54.96287904 287.3401982 -52.98142815 287.34438133 C-43.66690724 287.36342478 -34.35239421 287.37765553 -25.03785759 287.3859933 C-14.31536832 287.39575178 -3.59308624 287.42203855 7.1293301 287.46249419 C15.43535098 287.49274799 23.74131279 287.50747107 32.04738766 287.51077431 C36.99928533 287.51311492 41.95096146 287.52194525 46.90279961 287.54723549 C51.56914346 287.57068283 56.23512252 287.57468318 60.90151024 287.56447411 C62.60292532 287.5639826 64.30435939 287.57018763 66.00571823 287.58403015 C84.03666971 287.72238125 98.86693117 284.57623453 112.453125 271.78125 C123.22930307 260.44602155 126.76977564 247.93096749 126.81762695 232.60107422 C126.82419815 231.67483749 126.83076935 230.74860077 126.83753967 229.79429626 C126.85716047 226.74567567 126.86891079 223.69710411 126.87890625 220.6484375 C126.88298178 219.60092442 126.8870573 218.55341133 126.89125633 217.47415543 C126.91207029 211.92841035 126.92639162 206.38268967 126.93579102 200.83691406 C126.9468397 195.13791971 126.98123568 189.43931744 127.02096272 183.74046135 C127.04722801 179.33238039 127.05549168 174.92439147 127.05907249 170.51623917 C127.06391357 168.41689534 127.07545586 166.31755494 127.09411049 164.21828842 C127.2489984 145.63185575 125.11124339 130.94990961 111.828125 116.78125 C101.536655 107.10330994 88.31538868 101.98521591 74.27987671 101.95330811 C73.54832638 101.95033698 72.81677606 101.94736586 72.06305754 101.9443047 C69.61673372 101.93564739 67.17045901 101.93411196 64.72412109 101.93261719 C62.96785376 101.92798683 61.21158743 101.92296188 59.45532227 101.91757202 C54.68643719 101.90446511 49.91756618 101.89800615 45.1486659 101.89356136 C42.16637579 101.89062728 39.18408949 101.88652178 36.2018013 101.88205719 C26.86272175 101.86838542 17.52365095 101.85871776 8.18456209 101.8548553 C-2.5803896 101.85037821 -13.34521408 101.83284515 -24.11012709 101.8038547 C-32.44069445 101.78220238 -40.77122612 101.77214909 -49.1018213 101.77081418 C-54.07256551 101.7697685 -59.0431901 101.76391147 -64.01390457 101.74599457 C-68.69413219 101.7294529 -73.37415105 101.72738785 -78.05439758 101.73613358 C-79.76554806 101.73690075 -81.47671004 101.73260367 -83.18783188 101.72267532 C-102.75925296 101.61584124 -118.73998777 106.17202266 -132.359375 121.09375 Z " fill="#3B2E62" transform="translate(195.359375,152.90625)"/>
<path d="M0 0 C1.09415044 -0.00551503 1.09415044 -0.00551503 2.21040493 -0.01114148 C4.64972236 -0.02213648 7.08899712 -0.02601509 9.52833557 -0.02983093 C11.27973566 -0.03609895 13.03113442 -0.04274605 14.78253174 -0.04974365 C20.53185608 -0.07075351 26.28118057 -0.08114603 32.03053284 -0.09111023 C34.0141711 -0.09515952 35.99780923 -0.09927649 37.98144722 -0.10346031 C47.30611427 -0.12250852 56.63077344 -0.13673799 65.9554562 -0.14507228 C76.69494552 -0.15483106 87.43422799 -0.1811166 98.17364448 -0.22157317 C106.48897133 -0.25181508 114.80423917 -0.26654896 123.11961991 -0.26985329 C128.07876623 -0.27219536 133.0376915 -0.28104496 137.99677849 -0.30631447 C142.66967207 -0.32974063 147.34220135 -0.33377048 152.01513863 -0.32355309 C153.72019799 -0.32306106 155.42527618 -0.32928177 157.13027954 -0.34310913 C175.07284351 -0.48035165 189.87628258 3.10403976 203.30006409 15.69404602 C213.54372741 26.34474232 217.81223329 37.93808627 217.80470276 52.47627258 C217.80974068 53.87482735 217.80974068 53.87482735 217.81488037 55.30163574 C217.8243697 58.38036944 217.8263326 61.45904861 217.82740784 64.53779602 C217.83062228 66.68385338 217.83398649 68.82991051 217.8374939 70.97596741 C217.84348045 75.47493497 217.84533433 79.97388335 217.84474182 84.47285461 C217.84464033 90.22374108 217.85828106 95.97450371 217.87551403 101.72536087 C217.88666121 106.15901753 217.88866018 110.59264454 217.8881321 115.02631378 C217.88930855 117.14568762 217.89371148 119.26506232 217.90146446 121.3844223 C217.91131735 124.35653211 217.90836521 127.32837679 217.90235901 130.30049133 C217.90797852 131.16730026 217.91359802 132.03410919 217.91938782 132.92718506 C217.85019174 146.47640897 213.6192074 157.97251886 204.65943909 168.14717102 C204.11287659 168.77623352 203.56631409 169.40529602 203.00318909 170.05342102 C193.38640241 180.39600292 180.21203385 185.03086997 166.30413115 185.60209262 C162.40969463 185.68397744 158.51855155 185.67318743 154.62355042 185.64888 C152.86742726 185.65267323 151.11130711 185.65818147 149.35519409 185.66525269 C144.63215681 185.67909076 139.90948856 185.6681217 135.18647218 185.65154147 C130.21934437 185.63758174 125.25223562 185.64416314 120.28509521 185.64767456 C111.95091376 185.65036736 103.61687709 185.63697891 95.2827301 185.61372375 C85.67309763 185.58709372 76.06370665 185.58537878 66.45404989 185.59711212 C57.1715519 185.60792114 47.88914053 185.60168003 38.6066494 185.58755684 C34.67274087 185.58182674 30.73889634 185.58185607 26.80498695 185.58662224 C22.16808426 185.59142317 17.53144336 185.58116238 12.89459038 185.55966759 C11.20160429 185.55414272 9.50859281 185.55359444 7.81560516 185.55862045 C-10.6317578 185.60648548 -25.16944425 182.25172257 -38.63743591 169.04560852 C-48.67200095 158.28600265 -52.482707 145.33717516 -52.50169373 130.93574524 C-52.50665863 130.02755539 -52.51162354 129.11936554 -52.51673889 128.18365479 C-52.5312998 125.18971487 -52.53815331 122.19582798 -52.54368591 119.20185852 C-52.5494435 117.10925802 -52.55520115 115.01665751 -52.56095886 112.92405701 C-52.5714524 108.53781388 -52.57730546 104.15158899 -52.58079529 99.76533508 C-52.58626856 94.17053639 -52.61027874 88.57598246 -52.63876724 82.9812603 C-52.65748007 78.65728575 -52.66260387 74.33336906 -52.66413116 70.00935745 C-52.66714005 67.94827567 -52.67510824 65.88719446 -52.68831635 63.8261528 C-52.80342821 44.47869196 -50.68224077 29.06364222 -36.82102966 14.43623352 C-26.55361704 4.96110943 -13.88005216 0.04546729 0 0 Z M-16.34056091 28.14717102 C-17.0456781 28.59318665 -17.75079529 29.03920227 -18.47727966 29.49873352 C-23.8986074 33.95050391 -27.68656111 39.19330525 -28.62561417 46.30636978 C-29.10548902 52.7977401 -29.01565201 59.30278223 -28.96946716 65.80732727 C-28.97029695 67.92381919 -28.97276046 70.04031104 -28.97677612 72.15679932 C-28.97962543 76.57900026 -28.96501628 81.00069229 -28.93748474 85.42280579 C-28.90338305 91.07401638 -28.90943571 96.72431891 -28.92814732 102.37557316 C-28.93874499 106.7415211 -28.92975463 111.10725988 -28.9147625 115.4731884 C-28.90960198 117.55626745 -28.91003645 119.63936853 -28.91630745 121.72244453 C-28.92179398 124.6393145 -28.90127533 127.55490949 -28.87400818 130.47163391 C-28.88053406 131.32123688 -28.88705994 132.17083984 -28.89378357 133.04618835 C-28.76341785 141.30060326 -25.81116983 148.54909048 -20.12096405 154.59006596 C-11.43110053 162.19004723 -1.63497085 161.85900243 9.25123596 161.77827454 C11.01972164 161.78341998 12.78820218 161.79070596 14.55667114 161.79995728 C19.33571856 161.81839993 24.11420479 161.80557794 28.89322853 161.78586698 C33.90803753 161.76942002 38.92281267 161.77830176 43.93763733 161.78338623 C52.35720225 161.78790044 60.77654452 161.77207906 69.19606018 161.74409485 C78.91303907 161.71204606 88.62961652 161.71206095 98.3466239 161.72930962 C107.71616972 161.74520499 117.08556917 161.73842178 126.45510864 161.7213726 C130.43255539 161.71452222 134.4098841 161.71551383 138.3873291 161.72291756 C143.07594131 161.73061114 147.76409982 161.71835442 152.45263481 161.69106865 C154.16741528 161.68421587 155.88223837 161.68405328 157.59701729 161.69128418 C168.36870569 161.73145298 177.8759786 161.42329248 186.47193909 154.14717102 C195.91980877 143.49660602 195.38934984 130.78053543 195.28834534 117.42060852 C195.28917567 115.42147187 195.29164125 113.42233531 195.2956543 111.42320251 C195.29849885 107.25253014 195.28394029 103.08239878 195.25636292 98.91181946 C195.22223834 93.58808025 195.22832616 88.26530452 195.24702549 82.94151878 C195.25763299 78.82001323 195.24862438 74.69872883 195.23364067 70.5772438 C195.22848891 68.61500837 195.22890379 66.65274956 195.23518562 64.69051743 C195.26136675 51.6046417 195.00164109 40.87161066 185.59693909 30.83857727 C179.68944905 25.68143375 173.16325381 23.99794757 165.48104858 24 C164.74500686 23.99632331 164.00896513 23.99264662 163.25061911 23.98885852 C160.77726628 23.97782063 158.30395545 23.97397766 155.83058167 23.97016907 C154.05988939 23.96390446 152.28919843 23.95725766 150.51850891 23.95025635 C144.69700537 23.92921198 138.87550156 23.91885311 133.05397034 23.90888977 C131.04977085 23.90484225 129.0455715 23.90072533 127.0413723 23.89653969 C117.62487377 23.87748662 108.20838309 23.86325624 98.79186898 23.85492772 C87.92381971 23.84515664 77.05597417 23.81884093 66.18799669 23.77842683 C57.78702968 23.74825934 49.38612105 23.73345821 40.98510092 23.73014671 C35.96799063 23.72779679 30.95109796 23.71884401 25.93404579 23.69368553 C21.21195172 23.67038902 16.49021833 23.66617796 11.76808167 23.67644691 C10.03792813 23.67694201 8.30775676 23.67062922 6.5776577 23.65689087 C-5.4712772 23.42537262 -5.4712772 23.42537262 -16.34056091 28.14717102 Z " fill="#6EC8F6" transform="translate(104.34056091308594,254.8528289794922)"/>
<path d="M0 0 C9.36772799 5.49573375 14.87752794 11.6006416 18.3046875 22.01171875 C20.50295889 31.45934577 19.44450946 40.39856698 15 49 C9.28192735 58.0866402 2.47932561 63.50202122 -8 66 C-8.99 66 -9.98 66 -11 66 C-10.96519531 66.6084375 -10.93039062 67.216875 -10.89453125 67.84375 C-10.36281896 85.06110041 -15.05344077 101.07313652 -26.125 114.4375 C-36.07518998 124.61071148 -50.10105164 132.5834892 -64.51219845 133.13422108 C-65.88953123 133.14357788 -67.26690733 133.14753 -68.64427185 133.14717102 C-69.4063739 133.15084771 -70.16847594 133.1545244 -70.95367199 133.1583125 C-73.50354538 133.16931204 -76.05337796 133.17318689 -78.60327148 133.17700195 C-80.43348824 133.18326961 -82.26370374 133.18991668 -84.09391785 133.19691467 C-90.10296752 133.21792825 -96.11201735 133.22831718 -102.12109375 133.23828125 C-104.19388403 133.24233035 -106.26667418 133.24644732 -108.33946419 133.25063133 C-118.08273715 133.2696801 -127.82600258 133.28390963 -137.56929058 133.2922433 C-148.79326021 133.30200325 -160.01703197 133.32829167 -171.24093193 133.36874419 C-179.92992865 133.39897873 -188.6188689 133.41371927 -197.30791718 133.41702431 C-202.49062485 133.41936716 -207.67312108 133.42822708 -212.85577202 133.45348549 C-217.73877965 133.47689872 -222.62143861 133.48094655 -227.50448799 133.47072411 C-229.28694957 133.47023178 -231.06942908 133.47646167 -232.85183716 133.49028015 C-250.88905897 133.6221792 -266.57489094 130.33822262 -280.05615234 117.37109375 C-286.76529166 110.70412502 -286.76529166 110.70412502 -288 107 C-283.56650486 108.72546838 -279.30082104 110.72749007 -275.01171875 112.78125 C-268.70916992 115.33169777 -262.83090203 116.2977315 -256.06416321 116.26742554 C-255.30695943 116.27195665 -254.54975564 116.27648776 -253.76960629 116.28115618 C-251.25429959 116.2937285 -248.73921142 116.29218448 -246.22387695 116.29052734 C-244.41129786 116.29651716 -242.5987213 116.30332375 -240.78614807 116.31088257 C-235.87680087 116.32850559 -230.96752345 116.33323644 -226.05814767 116.33451414 C-222.98586765 116.33593862 -219.91360521 116.34021388 -216.84132957 116.34550858 C-206.10848241 116.36399802 -195.37568483 116.37218072 -184.64282227 116.37060547 C-174.66240939 116.36940501 -164.6822131 116.39049143 -154.701855 116.4220928 C-146.11386553 116.44830945 -137.52594656 116.45897048 -128.93791741 116.45769465 C-123.8173375 116.45718652 -118.69695009 116.46278698 -113.57641029 116.48405075 C-108.75572712 116.50352361 -103.93541827 116.50349614 -99.1147213 116.48901749 C-97.35441918 116.48693933 -95.59409307 116.49157041 -93.83383179 116.5037384 C-75.28355663 116.62357164 -58.71877494 112.19449054 -45 99 C-34.31039227 86.81248545 -28.96820027 74.09055737 -28.375 58 C-28.33632813 57.12988281 -28.29765625 56.25976562 -28.2578125 55.36328125 C-28.16459113 53.24249514 -28.08125864 51.12127815 -28 49 C-27.31035156 48.85304688 -26.62070312 48.70609375 -25.91015625 48.5546875 C-15.0758317 45.96871703 -8.6180925 41.75473417 -2.41015625 32.46484375 C0.91934553 26.64513288 1.28398896 22.15929768 1.1875 15.5625 C1.18685547 14.72912109 1.18621094 13.89574219 1.18554688 13.03710938 C1.15387558 8.58553231 0.8903106 4.38032815 0 0 Z " fill="#E5E6E7" transform="translate(358,331)"/>
<path d="M0 0 C7.13943318 2.29174472 11.8710161 5.3201617 15.375 12.125 C17.27520706 16.23936137 18.12301021 19.94879227 18.14044189 24.48258972 C18.14615204 25.37539642 18.15186218 26.26820312 18.15774536 27.18806458 C18.15942215 28.64607735 18.15942215 28.64607735 18.16113281 30.13354492 C18.16609772 31.16330444 18.17106262 32.19306396 18.17617798 33.25402832 C18.19078954 36.66284859 18.19760059 40.0716223 18.203125 43.48046875 C18.20887805 45.8521576 18.21463577 48.22384645 18.22039795 50.59553528 C18.23090561 55.57126075 18.23674957 60.54697007 18.24023438 65.52270508 C18.24571319 71.88685178 18.26972933 78.2507839 18.29820633 84.6148634 C18.31686661 89.51604324 18.32204016 94.4171718 18.32357025 99.31838417 C18.32659053 101.66384362 18.33459787 104.0093023 18.34775543 106.35472679 C18.36488355 109.64314266 18.36291875 112.93103957 18.35644531 116.21948242 C18.3656601 117.18136978 18.37487488 118.14325714 18.3843689 119.1342926 C18.32799346 128.3147208 16.33613651 135.53173046 9.95703125 142.2734375 C2.04623936 149.25261917 -7.14659079 149.15388883 -17.16699219 149.04663086 C-19.2337831 149.03386349 -21.30057604 149.02142227 -23.36737061 149.00926208 C-24.99933506 148.99738767 -24.99933506 148.99738767 -26.66426849 148.98527336 C-33.67099744 148.94295548 -40.67790216 148.95500129 -47.68473434 148.95516109 C-53.83061105 148.95216244 -59.97547364 148.931409 -66.12109375 148.87329102 C-72.08190003 148.81798418 -78.04100763 148.81169603 -84.00199127 148.83798409 C-86.26490509 148.83921461 -88.5279033 148.82284461 -90.79055023 148.78806877 C-105.38429054 148.20285119 -105.38429054 148.20285119 -117.71972656 154.84985352 C-119.18338874 156.5352149 -120.61482569 158.24955946 -122 160 C-123.32713725 161.21763309 -124.676602 162.41219119 -126.0625 163.5625 C-129.01707997 166.12673912 -131.91960685 168.74137557 -134.8125 171.375 C-139.25380505 175.39202013 -143.85785221 179.16578678 -148.5234375 182.91796875 C-150.62959808 184.68860533 -152.50409216 186.48997337 -154.375 188.5 C-157.07192096 191.06849615 -158.29871241 192 -162 192 C-165 190 -165 190 -165.57861328 187.79199219 C-167.31740497 168.04353385 -167.31740497 168.04353385 -161.9296875 161.54296875 C-158.81008188 158.45147854 -155.39633719 155.80308066 -151.80712891 153.27929688 C-149.62008171 151.73104946 -147.65887684 149.99969734 -145.6875 148.1875 C-145.09710938 147.67960938 -144.50671875 147.17171875 -143.8984375 146.6484375 C-140.68301616 143.85644613 -137.54469965 140.97845865 -134.39453125 138.11328125 C-133.20923828 137.06720703 -133.20923828 137.06720703 -132 136 C-131.34041794 135.30603622 -130.68083588 134.61207245 -130.00126648 133.89707947 C-125.59139818 131.10963268 -121.70148259 131.46655398 -116.58520508 131.53344727 C-115.53739868 131.53114105 -114.48959229 131.52883484 -113.41003418 131.52645874 C-111.13689841 131.52383043 -108.86373816 131.53026943 -106.59064674 131.54471016 C-102.98730451 131.56660204 -99.38480169 131.56287649 -95.78141785 131.55223083 C-86.82869646 131.5305617 -77.87616064 131.54787755 -68.92346191 131.57373047 C-61.36276502 131.5951725 -53.80260668 131.59701473 -46.24191856 131.57081413 C-42.70209149 131.56647678 -39.1632099 131.59106823 -35.62348938 131.61634827 C-33.43624457 131.61107387 -31.24900261 131.60434896 -29.06176758 131.59594727 C-28.08634506 131.61085709 -27.11092255 131.62576691 -26.10594177 131.64112854 C-18.6415761 131.56430133 -12.06077456 129.6150892 -6.37939167 124.55725956 C-1.6384592 119.17598615 0.37859955 114.03141717 0.3984375 106.921875 C0.40130768 106.26922668 0.40417786 105.61657837 0.40713501 104.94415283 C0.40916327 103.57604088 0.4037206 102.20789911 0.39111328 100.83984375 C0.37493475 98.74153688 0.39105453 96.64512545 0.41015625 94.546875 C0.40817563 93.21353742 0.40433571 91.88020101 0.3984375 90.546875 C0.39336182 88.73461426 0.39336182 88.73461426 0.38818359 86.88574219 C0.26008301 85.93344727 0.13198242 84.98115234 0 84 C-0.99 83.34 -1.98 82.68 -3 82 C-3.375 78.5 -3.375 78.5 -3 75 C-2.01 74.34 -1.02 73.68 0 73 C0.46865145 69.73299718 0.46865145 69.73299718 0.3984375 65.875 C0.40130768 65.1722998 0.40417786 64.46959961 0.40713501 63.74560547 C0.40917714 62.25943191 0.40363678 60.77323157 0.39111328 59.28710938 C0.37505992 57.00850492 0.39095499 54.7316741 0.41015625 52.453125 C0.40817384 51.01041274 0.40433021 49.56770159 0.3984375 48.125 C0.39336182 46.14886719 0.39336182 46.14886719 0.38818359 44.1328125 C0.26008301 43.09898438 0.13198242 42.06515625 0 41 C-0.99 40.34 -1.98 39.68 -3 39 C-3.375 36 -3.375 36 -3 33 C-2.01 32.34 -1.02 31.68 0 31 C0.41854048 27.79574675 0.41854048 27.79574675 0.29296875 24.0234375 C0.28872391 23.33819 0.28447906 22.6529425 0.28010559 21.94692993 C0.26329753 19.75588871 0.22564405 17.56576368 0.1875 15.375 C0.17245579 13.89063827 0.15876693 12.40626215 0.14648438 10.921875 C0.1133879 7.28095167 0.06159207 3.64056522 0 0 Z " fill="#E4E5E6" transform="translate(481,65)"/>
<path d="M0 0 C0.72579764 -0.0060911 1.45159527 -0.01218221 2.19938678 -0.01845789 C4.61434393 -0.03501326 7.02876949 -0.03032293 9.44377136 -0.0255127 C11.18225651 -0.03285745 12.92073679 -0.04144486 14.65921021 -0.05117798 C19.37010403 -0.07336167 24.08082276 -0.07632618 28.79176164 -0.07443047 C32.73043128 -0.0743106 36.66906405 -0.08288136 40.60772341 -0.09120798 C49.90400931 -0.11043131 59.20020541 -0.11333001 68.49650574 -0.10656738 C78.07201099 -0.09992951 87.64713076 -0.12278322 97.22255784 -0.15988111 C105.4563553 -0.19061827 113.69002901 -0.20193372 121.92388266 -0.1980443 C126.8359477 -0.1959807 131.7477128 -0.20139571 136.65972328 -0.22593689 C141.28184304 -0.24826747 145.90333809 -0.24627395 150.5254612 -0.22600937 C152.21606943 -0.22261029 153.90672024 -0.22764067 155.59727097 -0.24199295 C165.69651584 -0.32177608 174.5296952 -0.02248564 182.39230061 7.14981842 C187.68859104 12.59384075 188.72452743 18.93750672 188.69841003 26.38659668 C188.69647644 27.6679248 188.69454285 28.94925293 188.69255066 30.26940918 C188.68634705 30.92554199 188.68014343 31.5816748 188.67375183 32.25769043 C188.65529792 34.28515983 188.65324388 36.31217638 188.65348816 38.33972168 C188.60833195 48.25401851 188.60833195 48.25401851 187.46794128 49.39440918 C185.03044128 49.58190918 185.03044128 49.58190918 182.46794128 49.39440918 C179.77661534 46.70308324 180.21532723 45.29757322 180.19450378 41.53894043 C180.16356628 39.76873535 180.16356628 39.76873535 180.13200378 37.96276855 C180.10616595 35.47846104 180.08781568 32.99406325 180.07731628 30.50964355 C179.94285417 23.63340043 179.72091147 18.92640914 175.46794128 13.39440918 C170.32922186 9.54036961 165.80934506 9.26848971 159.51097107 9.24050903 C158.4607548 9.23393565 158.4607548 9.23393565 157.38932204 9.22722948 C155.04345536 9.21387592 152.69762622 9.20767041 150.35173035 9.20153809 C148.66955904 9.19363447 146.98738941 9.18536536 145.30522156 9.17675781 C139.78135287 9.15057012 134.25747671 9.13523452 128.73356628 9.12097168 C126.83058925 9.11561087 124.92761226 9.11023336 123.02463531 9.10483932 C115.10838604 9.08321637 107.19213878 9.06447985 99.27586746 9.05321693 C87.93732692 9.03697764 76.59912901 9.00379363 65.26071763 8.94681609 C57.28435711 8.90810184 49.30808819 8.88858255 41.33163619 8.88329637 C36.56934141 8.87964528 31.80741237 8.86764951 27.04521942 8.83519363 C22.56353646 8.80508643 18.08244005 8.79881053 13.60067749 8.81057739 C11.95920371 8.8107979 10.3177025 8.80251181 8.67632294 8.78492355 C-2.33257256 8.4063247 -2.33257256 8.4063247 -12.07204914 12.87777424 C-17.65394452 18.67615921 -18.11876371 24.02703582 -18.06550598 31.88439941 C-18.07412155 32.91620331 -18.08273712 33.9480072 -18.09161377 35.01107788 C-18.11424433 38.40864425 -18.1075397 41.80538383 -18.09846497 45.20300293 C-18.10370191 47.57280217 -18.10997864 49.94259932 -18.11724854 52.31239319 C-18.1276475 57.27448346 -18.12309835 62.23628686 -18.10847473 67.19836426 C-18.0912905 73.54819172 -18.11478156 79.897114 -18.14996433 86.24684048 C-18.17195516 91.13944971 -18.17049261 96.03184293 -18.16219902 100.92448616 C-18.16138039 103.26518814 -18.16822682 105.60590612 -18.18297005 107.94656181 C-18.20044554 111.2232772 -18.18584647 114.4983733 -18.16316223 117.77502441 C-18.17485443 118.73579391 -18.18654663 119.69656342 -18.19859314 120.68644714 C-18.10804992 127.13479617 -16.66192704 131.3942226 -12.53205872 136.39440918 C-7.58906846 140.89453037 -3.15229673 140.98062539 3.21794128 141.01940918 C4.92121245 141.04486914 6.62438859 141.07833186 8.32731628 141.12097168 C9.07465027 141.12693359 9.82198425 141.13289551 10.59196472 141.13903809 C12.46794128 141.39440918 12.46794128 141.39440918 14.46794128 143.39440918 C14.71337269 146.04228707 14.84143514 148.59344741 14.88200378 151.24597168 C14.90136993 152.02000336 14.92073608 152.79403503 14.94068909 153.59152222 C15.00053958 156.06737193 15.04689139 158.54326801 15.09294128 161.01940918 C15.1311161 162.69651295 15.17016754 164.37359702 15.21012878 166.05065918 C15.30624537 170.16508271 15.39025567 174.27959804 15.46794128 178.39440918 C16.20109558 177.72184082 16.93424988 177.04927246 17.68962097 176.35632324 C18.66318542 175.46654785 19.63674988 174.57677246 20.63981628 173.66003418 C21.59984558 172.78121582 22.55987488 171.90239746 23.54899597 170.99694824 C26.211451 168.62309657 28.92657844 166.36398291 31.71794128 164.14440918 C37.14484801 159.77316874 42.20498333 155.06272872 47.2540741 150.26647949 C47.85832214 149.69381348 48.46257019 149.12114746 49.08512878 148.53112793 C49.8834613 147.76868774 49.8834613 147.76868774 50.69792175 146.99084473 C51.57408142 146.20060913 51.57408142 146.20060913 52.46794128 145.39440918 C53.11020157 144.71110535 53.75246185 144.02780151 54.41418457 143.3237915 C58.90757756 140.4848381 62.88546643 140.86118154 68.09806824 140.92785645 C69.16859436 140.92555023 70.23912048 140.92324402 71.34208679 140.92086792 C73.66433665 140.91823954 75.98661047 140.92467895 78.30881691 140.93911934 C81.9872157 140.96099979 85.66479178 140.95728988 89.3432312 140.94664001 C98.48045036 140.92496544 107.61748743 140.94231964 116.75468445 140.96813965 C124.47377275 140.98955446 132.19233368 140.99146539 139.91141319 140.96522331 C143.52998749 140.96087697 147.14764277 140.98550202 150.76611328 141.01075745 C152.99395657 141.0054849 155.22179706 140.99876124 157.44963074 140.99035645 C158.45094528 141.00526627 159.45225983 141.02017609 160.48391724 141.03553772 C166.97377021 140.96974358 171.50752472 139.72278177 176.46794128 135.39440918 C179.27733079 131.2479603 179.84803611 127.92591017 179.90934753 122.97253418 C179.93577332 121.78272949 179.9621991 120.5929248 179.98942566 119.36706543 C180.00296082 118.13858887 180.01649597 116.9101123 180.03044128 115.64440918 C180.06476152 113.19114794 180.1072991 110.73798333 180.15934753 108.28503418 C180.17167419 107.20254395 180.18400085 106.12005371 180.19670105 105.00476074 C180.46794128 102.39440918 180.46794128 102.39440918 182.46794128 100.39440918 C185.03044128 100.20690918 185.03044128 100.20690918 187.46794128 100.39440918 C190.11334173 103.03980962 188.78699566 110.20860634 188.81803894 113.79284668 C188.83447282 115.17973763 188.8615941 116.5665484 188.90007019 117.95300293 C189.13414639 126.43673853 188.99574146 133.52102607 183.46794128 140.39440918 C178.12307436 145.98742533 172.44121818 149.50814622 164.56884766 149.71911621 C162.66505879 149.71208529 160.76128518 149.68875337 158.85783386 149.65222168 C157.812948 149.64474411 156.76806213 149.63726654 155.69151306 149.62956238 C153.43037481 149.61260998 151.16927665 149.58939068 148.90825844 149.56057739 C145.32109974 149.51892882 141.73469144 149.50279041 138.14730835 149.49475098 C127.95053746 149.47090373 117.75457724 149.42986141 107.55851746 149.30212402 C101.31248378 149.22572289 95.06819979 149.20336579 88.82173729 149.21539307 C86.45072429 149.20978092 84.07966672 149.18425731 81.70910072 149.13787842 C67.29571684 148.38378628 67.29571684 148.38378628 54.70176983 154.23564148 C52.43463942 156.47646112 50.44766843 158.8993561 48.46794128 161.39440918 C47.12192763 162.63495007 45.75291947 163.85208063 44.34294128 165.01940918 C40.48690583 168.36343993 36.70008348 171.78095958 32.91325378 175.20300293 C30.74397229 177.14703954 28.55050532 179.05667268 26.34294128 180.95690918 C22.79308713 184.0191066 19.59222756 187.33887173 16.42497253 190.79284668 C14.06172025 192.72684556 12.50387921 193.21041294 9.46794128 193.39440918 C8.47794128 192.73440918 7.48794128 192.07440918 6.46794128 191.39440918 C6.12736511 188.68884277 6.12736511 188.68884277 6.17497253 185.29284668 C6.18947449 183.47526855 6.18947449 183.47526855 6.20426941 181.62097168 C6.22940613 180.34995605 6.25454285 179.07894043 6.28044128 177.76940918 C6.30074402 175.85128418 6.30074402 175.85128418 6.32145691 173.89440918 C6.35690933 170.72732636 6.40632688 167.56107377 6.46794128 164.39440918 C5.04517883 163.94629883 5.04517883 163.94629883 3.59367371 163.48913574 C-0.95260429 161.89689091 -3.53597927 159.08545551 -6.53205872 155.39440918 C-7.00643372 154.36315918 -7.48080872 153.33190918 -7.96955872 152.26940918 C-9.62896616 149.21609947 -10.38495242 148.68122924 -13.28205872 147.01940918 C-18.68545561 143.91893605 -23.09534159 139.70126739 -25.60324097 133.92889404 C-26.86149763 129.14077587 -26.83517967 124.61372635 -26.8384552 119.68249512 C-26.84677872 118.61503555 -26.85510223 117.54757599 -26.86367798 116.44776917 C-26.88773979 112.92473687 -26.89654587 109.4018899 -26.90315247 105.87878418 C-26.91212218 103.4226679 -26.92124409 100.96655218 -26.93051147 98.51043701 C-26.94699401 93.36253534 -26.95470018 88.21469864 -26.95759583 83.06677246 C-26.96297654 76.48513848 -27.00064807 69.90411911 -27.04633999 63.32265854 C-27.07615044 58.24900101 -27.08332028 53.17549072 -27.08432198 48.10175323 C-27.08851684 45.67616208 -27.10092144 43.25057019 -27.12183952 40.82506561 C-27.14883293 37.42422396 -27.14390339 34.02479709 -27.13142395 30.62390137 C-27.14625824 29.63134842 -27.16109253 28.63879547 -27.17637634 27.61616516 C-27.09615156 19.90031187 -25.07499429 13.26743387 -19.77658749 7.47538376 C-13.95750107 2.01939251 -7.89023062 0.02275022 0 0 Z " fill="#3C2D60" transform="translate(293.5320587158203,47.6055908203125)"/>
<path d="M0 0 C1.09415044 -0.00551503 1.09415044 -0.00551503 2.21040493 -0.01114148 C4.64972236 -0.02213648 7.08899712 -0.02601509 9.52833557 -0.02983093 C11.27973566 -0.03609895 13.03113442 -0.04274605 14.78253174 -0.04974365 C20.53185608 -0.07075351 26.28118057 -0.08114603 32.03053284 -0.09111023 C34.0141711 -0.09515952 35.99780923 -0.09927649 37.98144722 -0.10346031 C47.30611427 -0.12250852 56.63077344 -0.13673799 65.9554562 -0.14507228 C76.69494552 -0.15483106 87.43422799 -0.1811166 98.17364448 -0.22157317 C106.48897133 -0.25181508 114.80423917 -0.26654896 123.11961991 -0.26985329 C128.07876623 -0.27219536 133.0376915 -0.28104496 137.99677849 -0.30631447 C142.66967207 -0.32974063 147.34220135 -0.33377048 152.01513863 -0.32355309 C153.72019799 -0.32306106 155.42527618 -0.32928177 157.13027954 -0.34310913 C175.0702337 -0.48033169 189.8735361 3.10251783 203.29615784 15.69013977 C209.40123316 22.0373999 213.49042492 28.595058 215.65943909 37.14717102 C212.96165211 34.56009236 210.74351052 31.94958462 208.59693909 28.89717102 C201.31942452 19.50284223 191.78859148 14.71846619 180.65943909 11.14717102 C179.59708385 10.80176175 178.5347286 10.45635248 177.44018078 10.10047626 C173.47970227 9.1018508 170.10622855 8.89285392 166.02694702 8.88647461 C165.29030986 8.88264906 164.5536727 8.87882352 163.7947132 8.87488204 C161.34305366 8.86461934 158.89163128 8.86853134 156.43995667 8.87251282 C154.67516362 8.86816249 152.91037247 8.86297827 151.14558411 8.85702515 C146.36226624 8.84365519 141.57902749 8.84305449 136.79569459 8.84558845 C132.79508955 8.84666 128.79450039 8.84176983 124.79389876 8.83698303 C115.34892025 8.82589372 105.9039815 8.82544651 96.45899963 8.83149719 C86.73594249 8.83753063 77.01303029 8.82524065 67.28999788 8.80392712 C58.9262471 8.78627161 50.56254228 8.78031618 42.19877356 8.78356487 C37.21071061 8.78537234 32.22275095 8.78279571 27.23470497 8.76885033 C22.53884038 8.75621304 17.84320028 8.75827157 13.14733887 8.77126122 C11.43177398 8.77361414 9.71619301 8.77093881 8.00064659 8.76263809 C-10.79793157 8.67829926 -27.49340597 12.5145159 -41.34056091 26.14717102 C-43.89349352 29.35552438 -46.18364058 32.66181631 -48.34056091 36.14717102 C-49.34056091 33.14717102 -49.34056091 33.14717102 -48.44212341 30.79951477 C-40.62591228 16.42843874 -30.37957655 7.20534057 -14.84837341 1.87373352 C-9.81682458 0.41599507 -5.24808447 0.0171913 0 0 Z " fill="#F5F5F7" transform="translate(104.34056091308594,254.8528289794922)"/>
<path d="M0 0 C4.40962228 2.28576533 6.98363404 4.74209025 8.99609375 9.25 C9.73219773 14.70627586 9.94219559 20.22193656 7.43359375 25.25 C3.33989981 30.28839254 -1.68744683 32.8598283 -8.19140625 33.625 C-13.93904752 33.05965824 -17.76697824 30.73547556 -21.62109375 26.453125 C-24.56467773 22.29552051 -25.80571598 18.59368984 -25.48828125 13.48828125 C-24.28568077 7.93110325 -21.28552277 4.24966088 -16.87890625 0.8125 C-11.16839015 -2.29104136 -6.07449598 -2.27349557 0 0 Z " fill="#3E2F63" transform="translate(139.00390625,316.75)"/>
<path d="M0 0 C4.50665768 2.13473258 7.1741532 4.91822129 10 9 C11.58655906 13.75967719 11.98149437 18.4270171 10.1640625 23.19140625 C7.26220789 28.32320954 3.49925098 31.8043656 -2 34 C-5.98253753 34.77708049 -9.273777 34.24691582 -13.125 32.9375 C-17.64346921 29.89244466 -21.26026194 26.21921417 -23 21 C-23.51578753 16.08733521 -23.57444169 12.1709773 -21.375 7.6875 C-20.199375 6.3571875 -20.199375 6.3571875 -19 5 C-18.195625 4.05125 -17.39125 3.1025 -16.5625 2.125 C-11.89245581 -1.56564874 -5.57882057 -0.767532 0 0 Z " fill="#3C2E61" transform="translate(249,316)"/>
<path d="M0 0 C5.02245446 0.478329 8.0674916 1.83689542 12 5 C16.39035595 10.6955969 17.59703807 14.83554313 17 22 C15.06385841 28.03003133 11.41931002 32.68051544 6 36 C5.01 36 4.02 36 3 36 C3 42.27 3 48.54 3 55 C-3 53 -3 53 -6 51 C-6.22137393 48.37302936 -6.28162025 45.99106036 -6.1875 43.375 C-6.17396484 42.66859375 -6.16042969 41.9621875 -6.14648438 41.234375 C-6.1111104 39.48925872 -6.05730221 37.74453392 -6 36 C-7.1446875 35.814375 -7.1446875 35.814375 -8.3125 35.625 C-11 35 -11 35 -14 33 C-14.29296875 29.9609375 -14.29296875 29.9609375 -14.1875 26.375 C-14.16042969 25.18648437 -14.13335937 23.99796875 -14.10546875 22.7734375 C-14.07066406 21.85820312 -14.03585938 20.94296875 -14 20 C-13.39671875 19.72027344 -12.7934375 19.44054687 -12.171875 19.15234375 C-6.34143288 16.22771875 -3.47767118 14.09094166 -1 8 C-0.45044745 5.29961247 -0.19372483 2.76057883 0 0 Z " fill="#E4E5E7" transform="translate(205,168)"/>
<path d="M0 0 C10.01478834 3.33826278 15.7833991 5.84842406 20.8984375 14.984375 C23.47991274 22.05139233 23.16177413 30.51093999 20.75 37.625 C17.42053722 44.0461068 13.48081961 47.85343511 7 51 C4.69 51.66 2.38 52.32 0 53 C0 35.51 0 18.02 0 0 Z " fill="#0087EC" transform="translate(330,320)"/>
<path d="M0 0 C0 16.83 0 33.66 0 51 C-8.50275723 49.7853204 -12.21486336 47.24332689 -17.60546875 40.9765625 C-22.81501603 33.59272238 -22.83228136 26.79570073 -22 18 C-20.05120209 10.55280799 -14.25737935 5.0195752 -7.875 1.0625 C-5 0 -5 0 0 0 Z " fill="#0088ED" transform="translate(44,321)"/>
<path d="M0 0 C3.88418575 2.68774313 6.37408998 5.7615068 8.67578125 9.8515625 C9.24425781 10.83769531 9.24425781 10.83769531 9.82421875 11.84375 C10.67578125 13.8515625 10.67578125 13.8515625 10.67578125 17.8515625 C-6.48421875 17.8515625 -23.64421875 17.8515625 -41.32421875 17.8515625 C-40.07760714 10.37189283 -36.99883014 6.0869282 -31.44921875 1.0390625 C-21.20825053 -6.12961525 -10.89235921 -5.96183604 0 0 Z " fill="#0088ED" transform="translate(202.32421875,229.1484375)"/>
<path d="M0 0 C3.28133541 2.11463838 4.93976587 3.35514469 6.8125 6.8125 C7.53730586 11.24939569 7.85234968 15.65609042 5.859375 19.7890625 C3.36112761 22.99883604 0.73556702 24.87843642 -3.1875 25.8125 C-7.47067228 26.27975516 -9.61643678 26.11999558 -13.4375 24.0625 C-16.71981239 21.37697168 -18.88364469 19.48876845 -19.65625 15.2265625 C-19.75103591 6.76691989 -19.75103591 6.76691989 -16.9375 3.25 C-11.54497341 -1.52973947 -7.03221157 -2.61984353 0 0 Z " fill="#FEFCFD" transform="translate(381.1875,113.1875)"/>
<path d="M0 0 C3.28133541 2.11463838 4.93976587 3.35514469 6.8125 6.8125 C7.53730586 11.24939569 7.85234968 15.65609042 5.859375 19.7890625 C3.36112761 22.99883604 0.73556702 24.87843642 -3.1875 25.8125 C-7.47067228 26.27975516 -9.61643678 26.11999558 -13.4375 24.0625 C-16.71981239 21.37697168 -18.88364469 19.48876845 -19.65625 15.2265625 C-19.75103591 6.76691989 -19.75103591 6.76691989 -16.9375 3.25 C-11.54497341 -1.52973947 -7.03221157 -2.61984353 0 0 Z " fill="#FEFCFD" transform="translate(327.1875,113.1875)"/>
<path d="M0 0 C3.82158012 2.43191462 5.32820787 4.48462362 6.75 8.75 C7.14567015 13.99262952 6.58592201 17.29355112 3.75 21.75 C0.50953856 24.68666818 -2.18514935 25.64954239 -6.5625 26.0625 C-11.61964519 25.63392837 -14.50770185 23.66652797 -17.890625 19.9453125 C-20.41175649 15.87383003 -19.97046836 11.35966333 -19.25 6.75 C-17.63154438 3.49382142 -15.30226615 1.52166184 -12.375 -0.625 C-7.92146964 -1.93486187 -4.30505222 -1.65578932 0 0 Z " fill="#FEFCFD" transform="translate(435.25,113.25)"/>
<path d="M0 0 C10.78167021 4.79185343 17.68184118 15.93641884 22.0703125 26.46875 C24.23734276 32.36889962 25.26201179 37.71171714 25 44 C24.14728516 43.60167969 24.14728516 43.60167969 23.27734375 43.1953125 C22.50519531 42.84210938 21.73304688 42.48890625 20.9375 42.125 C19.80634766 41.60292969 19.80634766 41.60292969 18.65234375 41.0703125 C15.49264109 39.79526312 12.28585136 38.89285068 9 38 C8.91363281 36.70707031 8.82726562 35.41414063 8.73828125 34.08203125 C7.92129138 23.47852397 6.50432267 14.71605498 2 5 C1.32468851 3.33681732 0.65514598 1.67122888 0 0 Z " fill="#E3E4E6" transform="translate(321,274)"/>
<path d="M0 0 C1.70250393 1.28725907 3.37064759 2.62131719 5 4 C9.29732751 6.51789583 13.12360368 6.66350966 18 6 C21.64638554 4.71934902 24.86263119 3.18002014 27.5625 0.37890625 C29 -1 29 -1 31.625 -1.25 C34 -1 34 -1 35 0 C35.125 3.1875 35.125 3.1875 34 7 C27.35812119 13.15452922 19.80490115 15.55298858 10.8828125 15.3828125 C4.80635832 14.57591208 -0.56157711 11.53786014 -5.125 7.5 C-7.23029011 4.69294651 -7.48928568 3.42499975 -7 0 C-4.22339666 -1.38830167 -2.95033814 -0.89196269 0 0 Z " fill="#413264" transform="translate(173,369)"/>
<path d="M0 0 C2.89570609 1.57261794 5.04071381 3.34457774 7 6 C7.90523043 9.11666586 7.58459471 10.65186668 7 14 C5.20636089 16.8100346 3.98119065 18.50940468 1 20 C-3.41713859 20.36206054 -5.94898583 20.51432609 -9.9375 18.5625 C-12.45707943 15.43211343 -13.02219375 13.22245098 -13.27734375 9.2578125 C-12.79386147 5.32185816 -10.85725154 3.65790841 -8 1 C-5.04206277 -0.47896861 -3.29779776 -0.4355582 0 0 Z " fill="#F5739C" transform="translate(190,160)"/>
<path d="M0 0 C4.55555556 0.55555556 4.55555556 0.55555556 6 2 C6.11317284 4.35228319 6.16416537 6.67411948 6.16796875 9.02734375 C6.17129715 9.73145889 6.17462555 10.43557404 6.17805481 11.161026 C6.18312655 12.65316106 6.18546306 14.1453075 6.18530273 15.63745117 C6.18748759 17.92450607 6.20563549 20.21107753 6.22460938 22.49804688 C6.22754354 23.94531084 6.22952818 25.39257711 6.23046875 26.83984375 C6.23765427 27.52634506 6.24483978 28.21284637 6.25224304 28.92015076 C6.22882369 33.77117631 6.22882369 33.77117631 4 36 C1.4375 35.75 1.4375 35.75 -1 35 C-3.20285851 30.59428297 -2.18584947 24.61421191 -2.18530273 19.71435547 C-2.18749147 17.5085935 -2.2056586 15.30332984 -2.22460938 13.09765625 C-2.22754293 11.70052255 -2.22952798 10.30338647 -2.23046875 8.90625 C-2.23457764 7.63072266 -2.23868652 6.35519531 -2.24291992 5.04101562 C-2 2 -2 2 0 0 Z " fill="#432F63" transform="translate(476,104)"/>
<path d="M0 0 C5.28 0.33 10.56 0.66 16 1 C16 5.95 16 10.9 16 16 C9.17006803 13.72335601 9.17006803 13.72335601 6.3125 10.8125 C5.75175781 10.26207031 5.19101562 9.71164063 4.61328125 9.14453125 C3 7 3 7 0 0 Z " fill="#E5E6E7" transform="translate(284,196)"/>
<path d="M0 0 C3.63 0.66 7.26 1.32 11 2 C11 5.63 11 9.26 11 13 C6.87891371 9.59217864 3.07373244 6.42617471 0 2 C0 1.34 0 0.68 0 0 Z " fill="#E1E2E4" transform="translate(33,378)"/>
<path d="M0 0 C4.17418171 1.66967268 6.11746023 2.65996465 9.3125 5.5 C10.00988281 6.1084375 10.70726562 6.716875 11.42578125 7.34375 C13 9 13 9 13 11 C9.7 11 6.4 11 3 11 C2.01 7.37 1.02 3.74 0 0 Z " fill="#E2E3E5" transform="translate(218,236)"/>
</svg>
